# xmcd
#
# Track frame offsets:
#	182
#	10187
#	23750
#	35797
#	45935
#	57405
#	71210
#	81857
#	92582
#	103925
#	120060
#	132960
#	145530
#	160752
#	177712
#	194230
#	207190
#	218755
#	228935
#	238322
#	255645
#	266455
#
# Disc length: 3698 seconds
#
# Revision: 1
# Processed by: cddbd v1.4PL0 Copyright (c) Steve Scherf et al.
# Submitted via: audiograbber 1.82.02
#
DISCID=380e7016
DTITLE=Andy Williams - A World Of Love
DYEAR=1900
DGENRE=
TTITLE0=Domino
TTITLE1=Bali Ha'i
TTITLE2=Canadian Sunset
TTITLE3=Comme Ci, Comme Ca
TTITLE4=Love Song Of Old Hawaii
TTITLE5=Under Paris Skies
TTITLE6=Be Mine Tonight
TTITLE7=How Wonderful To Know
TTITLE8=The Hawaiian Wedding Song
TTITLE9=Mam'Selle
TTITLE10=I Love Paris
TTITLE11=Autumn Leaves
TTITLE12=The Village of St. Bernadette
TTITLE13=I Wish You Love
TTITLE14=April In Paris
TTITLE15=Mademoiselle De Paris
TTITLE16=Love Letters In the Sand
TTITLE17=The Bilbao Song
TTITLE18=Blue Hawaii
TTITLE19=The Three Bells
TTITLE20=Sweet Leilani
TTITLE21=Aloha Oe
EXTD=Music Club - MCCD 218
EXTT0=
EXTT1=
EXTT2=
EXTT3=
EXTT4=
EXTT5=
EXTT6=
EXTT7=
EXTT8=
EXTT9=
EXTT10=
EXTT11=
EXTT12=
EXTT13=
EXTT14=
EXTT15=
EXTT16=
EXTT17=
EXTT18=
EXTT19=
EXTT20=
EXTT21=
PLAYORDER=
